<svg width="64" height="64" viewBox="0 0 1024 1024" fill="none" xmlns="http://www.w3.org/2000/svg">
  <title>AnhePlayer</title>
  <rect x="32" y="32" width="960" height="960" rx="180" fill="#FFFFFF"/>
  <defs>
    <linearGradient id="f" x1="248" y1="164" x2="776" y2="860" gradientUnits="userSpaceOnUse">
      <stop offset="0" stop-color="#20A7FF"/>
      <stop offset="0.58" stop-color="#1677F2"/>
      <stop offset="1" stop-color="#085EE8"/>
    </linearGradient>
  </defs>
  <path d="M320 152C276.922 152 242 186.922 242 230V794C242 837.078 276.922 872 320 872H372C415.078 872 450 837.078 450 794V615H574V794C574 837.078 608.922 872 652 872H704C747.078 872 782 837.078 782 794V230C782 186.922 747.078 152 704 152H652C608.922 152 574 186.922 574 230V409H450V230C450 186.922 415.078 152 372 152H320Z" fill="url(#f)"/>
</svg>
